<svg width="354" height="93" viewBox="0 0 354 93" fill="none" xmlns="http://www.w3.org/2000/svg">
<path d="M92.933 42.5435L86.0454 35.4582C85.3029 35.4878 84.1854 35.6529 83.8055 37.8504C83.803 37.8454 83.8006 37.843 83.7956 37.8405C83.6747 38.5279 83.3615 39.1856 82.8483 39.7375C81.4323 41.255 79.0518 41.3413 77.5297 39.9272C76.0076 38.5131 75.9237 36.1333 77.3397 34.6132C77.8726 34.0441 78.5436 33.6721 79.2541 33.512C80.9883 32.7582 81.4225 31.8713 81.4027 31.1445L79.7548 29.4052L68.8092 19.9229L67.2674 18.5483L67.2477 18.5704L60.7696 12.9584C60.7597 12.2489 61.2013 11.3866 62.8368 10.6081C63.5424 10.4234 64.1961 10.0317 64.7117 9.44041C66.0759 7.87358 65.9081 5.50115 64.3392 4.13633C62.7678 2.77644 60.3946 2.94396 59.028 4.50833C58.537 5.07249 58.2484 5.74505 58.1473 6.43485C58.1473 6.43485 58.1423 6.42992 58.1374 6.42746C57.5922 8.21848 56.788 8.79003 56.0701 8.88118L50.009 3.61898C48.9137 2.66804 47.251 2.78383 46.3012 3.88012L39.4457 10.9974C39.4975 11.7365 40.0452 12.5839 41.9126 13.1506C41.9126 13.1506 41.9077 13.1555 41.9027 13.1604C42.5935 13.259 43.2669 13.5472 43.8343 14.0399C45.4033 15.3998 45.5686 17.7772 44.2044 19.3415C42.8402 20.9084 40.4621 21.0759 38.8956 19.7135C38.3035 19.2011 37.9138 18.5433 37.7238 17.8412C36.9097 16.1389 36.0093 15.7324 35.2816 15.7792L24.4766 28.1981L15.8054 37.5202C15.09 37.5055 14.2463 37.0325 13.5235 35.3745C13.3607 34.665 12.9907 33.9949 12.4184 33.4627C10.8963 32.0486 8.51573 32.1324 7.09973 33.6524C5.68373 35.1749 5.76514 37.5523 7.28968 38.9688C7.8398 39.4788 8.50093 39.7892 9.19166 39.9148C9.18673 39.9173 9.18179 39.9222 9.18179 39.9222C10.9555 40.5258 11.4982 41.3486 11.5673 42.0705L6.09323 47.9412C5.10401 49.003 5.16075 50.6634 6.22398 51.6513L13.1116 58.7366C13.8516 58.707 14.7175 58.1921 15.3515 56.3494C15.3515 56.3494 15.3564 56.3543 15.3589 56.3592C15.4823 55.6719 15.7955 55.0141 16.3062 54.4623C17.7222 52.9422 20.1052 52.8585 21.6273 54.2726C23.1494 55.6867 23.2332 58.0665 21.8172 59.584C21.2844 60.1556 19.4786 60.5276 19.301 61.3825C18.3611 62.7226 37.6424 77.8933 39.0831 79.6622C38.9943 80.3224 38.4886 81.0812 37.0306 81.7759C36.3251 81.9607 35.6689 82.3524 35.1558 82.9412C33.7916 84.5105 33.9593 86.8829 35.5283 88.2453C37.0972 89.6052 39.4753 89.4401 40.837 87.8733C41.3304 87.3091 41.619 86.6366 41.7177 85.9468C41.7227 85.9492 41.7227 85.9517 41.7251 85.9566C42.2703 84.1631 43.0745 83.5941 43.7899 83.5004L49.8536 88.7626C50.9489 89.7136 52.6115 89.5953 53.5638 88.504L60.9743 80.9876C60.9225 80.2485 60.6413 79.2163 58.5099 78.8344C58.5124 78.8295 58.5124 78.827 58.5173 78.8246C57.8266 78.7236 57.1556 78.4353 56.5857 77.9451C55.0192 76.5827 54.849 74.2078 56.2157 72.641C57.5799 71.0742 59.958 70.9091 61.5245 72.269C62.1165 72.7814 62.5063 73.4367 62.6938 74.1413C63.5078 75.8436 64.4083 76.2526 65.1385 76.2009L66.0315 75.1785C66.1006 75.1662 66.1721 75.1366 66.2461 75.0578L83.3565 56.6721C84.0645 56.6869 84.9131 57.1574 85.6359 58.8179C85.7987 59.5274 86.1663 60.1975 86.7386 60.7271C88.2607 62.1412 90.6413 62.0575 92.0597 60.5374C93.4757 59.0174 93.3919 56.6376 91.8698 55.226C91.3197 54.7136 90.6561 54.4031 89.9678 54.28C89.9678 54.28 89.9752 54.275 89.9777 54.2701C88.2064 53.6665 87.6613 52.8437 87.5971 52.1243L93.0662 46.2512C94.0555 45.1943 93.9987 43.5338 92.933 42.5435Z" fill="url(#paint0_linear_0_4)" stroke="#6EA652" stroke-width="0.7989" stroke-miterlimit="10" stroke-linecap="round" stroke-linejoin="round"/>
<path d="M66.1079 49.5893C66.4582 47.5347 66.3941 45.4702 65.9673 43.5018L72.063 40.2327L71.7645 39.3778C71.3624 38.2323 70.8691 37.1039 70.2893 36.0347L69.8601 35.239L63.3302 37.5277C62.1634 35.8845 60.6808 34.4433 58.9268 33.3125L60.9225 26.7027L60.106 26.311C58.8923 25.7271 57.982 25.3724 56.6918 24.9856L55.8234 24.7269L52.8286 30.9499C50.7737 30.5976 48.7064 30.6641 46.7329 31.0903L43.4618 24.9979L42.6083 25.2985C41.4587 25.7 40.3313 26.1928 39.2582 26.7742L38.4614 27.2028L40.7507 33.7214C39.1053 34.8892 37.6621 36.3673 36.5348 38.1214L29.9136 36.1284L29.5189 36.9413C29.2278 37.5449 28.986 38.0943 28.7838 38.6166C28.579 39.1389 28.3891 39.7055 28.1942 40.3509L27.9352 41.2156L34.1641 44.2089C33.8162 46.2635 33.8779 48.328 34.3022 50.2964L28.209 53.5656L28.505 54.418C28.9071 55.5684 29.403 56.6943 29.9827 57.7635L30.4119 58.5592L36.9393 56.273C38.1062 57.9162 39.5888 59.355 41.3452 60.4833L39.347 67.098L40.1636 67.4897C40.7729 67.7853 41.3205 68.0243 41.8411 68.2263C42.3591 68.4258 42.9265 68.618 43.5728 68.8126L44.4436 69.0713L47.4385 62.8508C49.4983 63.2006 51.5606 63.1365 53.5342 62.7104L56.8077 68.7978L57.6613 68.4998C58.8109 68.1007 59.9382 67.603 61.0113 67.0265L61.8081 66.5979L59.5189 60.0792C61.1643 58.9115 62.6049 57.4309 63.7397 55.6793L70.3559 57.6723L70.7506 56.8594C71.0442 56.2558 71.2835 55.7064 71.4882 55.1817C71.693 54.6594 71.883 54.0928 72.0778 53.4498L72.3369 52.5826L66.1079 49.5893ZM55.0735 48.8109C54.0127 51.5331 50.9464 52.8831 48.2205 51.8263C45.4945 50.7694 44.1451 47.7047 45.2059 44.9849C46.2617 42.2627 49.3306 40.9102 52.0565 41.9695C54.7799 43.0264 56.1293 46.0886 55.0735 48.8109Z" fill="url(#paint1_radial_0_4)" stroke="#636656" stroke-width="0.7989" stroke-miterlimit="10"/>
<path d="M50.1372 60.609C42.5663 60.609 36.4065 54.4574 36.4065 46.8992C36.4065 39.336 42.5663 33.1869 50.1372 33.1869C57.7081 33.1869 63.868 39.3384 63.868 46.8992C63.868 54.4574 57.7081 60.609 50.1372 60.609ZM50.1372 40.755C46.7452 40.755 43.9873 43.5117 43.9873 46.8967C43.9873 50.2841 46.7452 53.0359 50.1372 53.0359C53.5292 53.0359 56.2897 50.2816 56.2897 46.8967C56.2872 43.5142 53.5268 40.755 50.1372 40.755Z" fill="url(#paint2_radial_0_4)"/>
<path d="M121.618 45.6229L119.561 40.3854H112.935L110.899 45.6229H108.956L115.49 29.085H117.106L123.606 45.6229H121.618ZM118.961 38.6609L117.04 33.5564C116.79 32.9109 116.534 32.1201 116.27 31.179C116.105 31.9008 115.865 32.6916 115.557 33.5564L113.613 38.6609H118.961Z" fill="#5CBB59"/>
<path d="M134.727 43.9674H134.624C133.758 45.2214 132.46 45.8496 130.736 45.8496C129.115 45.8496 127.854 45.2978 126.954 44.1941C126.054 43.0904 125.602 41.5211 125.602 39.4837C125.602 37.4463 126.056 35.8672 126.959 34.7413C127.864 33.613 129.122 33.0513 130.736 33.0513C132.416 33.0513 133.706 33.6598 134.601 34.8768H134.749L134.67 33.9875L134.624 33.1203V28.0946H136.501V45.6229H134.974L134.727 43.9674ZM130.973 44.2828C132.253 44.2828 133.183 43.9354 133.758 43.2407C134.335 42.5459 134.624 41.425 134.624 39.8779V39.4837C134.624 37.7346 134.333 36.4855 133.748 35.7366C133.163 34.9902 132.231 34.6157 130.95 34.6157C129.85 34.6157 129.006 35.0419 128.424 35.8943C127.84 36.7467 127.549 37.9514 127.549 39.5059C127.549 41.0826 127.84 42.2749 128.419 43.0781C128.999 43.8812 129.85 44.2828 130.973 44.2828Z" fill="#5CBB59"/>
<path d="M150.898 29.1539H152.967L147.007 45.6229H145.108L139.185 29.1539H141.22L145.019 39.8114C145.456 41.0358 145.804 42.2257 146.06 43.3811C146.332 42.1641 146.684 40.952 147.123 39.7424L150.898 29.1539Z" fill="#5CBB59"/>
<path d="M155.494 29.93C155.494 29.5013 155.597 29.1884 155.809 28.9889C156.021 28.7893 156.285 28.6908 156.599 28.6908C156.902 28.6908 157.164 28.7918 157.378 28.9963C157.6 29.1983 157.706 29.5087 157.706 29.93C157.706 30.3512 157.6 30.6641 157.378 30.8711C157.161 31.078 156.902 31.179 156.599 31.179C156.285 31.179 156.021 31.0755 155.809 30.8711C155.597 30.6666 155.494 30.3512 155.494 29.93ZM157.529 45.623H155.649V33.2755H157.529V45.623Z" fill="#5CBB59"/>
<path d="M170.196 42.2553C170.196 43.4033 169.767 44.2902 168.909 44.9135C168.05 45.5368 166.844 45.8472 165.29 45.8472C163.647 45.8472 162.364 45.5885 161.446 45.0712V43.3368C162.041 43.6374 162.68 43.8739 163.361 44.0463C164.041 44.2188 164.7 44.305 165.334 44.305C166.313 44.305 167.066 44.1498 167.596 43.8394C168.122 43.529 168.386 43.0535 168.386 42.413C168.386 41.9326 168.176 41.5211 167.759 41.1812C167.34 40.8387 166.523 40.4347 165.312 39.9691C164.157 39.5404 163.338 39.166 162.852 38.8482C162.366 38.5304 162.004 38.1658 161.767 37.7617C161.53 37.3552 161.409 36.8724 161.409 36.3082C161.409 35.3031 161.821 34.5098 162.643 33.9259C163.464 33.3421 164.592 33.0538 166.022 33.0538C167.357 33.0538 168.659 33.3248 169.935 33.8644L169.266 35.3844C168.023 34.8744 166.896 34.6182 165.887 34.6182C164.999 34.6182 164.325 34.7562 163.876 35.0345C163.422 35.3129 163.198 35.6973 163.198 36.1826C163.198 36.5127 163.282 36.796 163.454 37.0276C163.622 37.2592 163.896 37.4809 164.273 37.6927C164.648 37.9022 165.374 38.2076 166.444 38.6067C167.914 39.1389 168.906 39.6759 169.422 40.2179C169.94 40.755 170.196 41.4374 170.196 42.2553Z" fill="#5CBB59"/>
<path d="M173.783 29.93C173.783 29.5013 173.889 29.1884 174.101 28.9889C174.311 28.7893 174.575 28.6908 174.891 28.6908C175.192 28.6908 175.453 28.7918 175.67 28.9963C175.89 29.1983 175.998 29.5087 175.998 29.93C175.998 30.3512 175.89 30.6641 175.67 30.8711C175.451 31.078 175.192 31.179 174.891 31.179C174.575 31.179 174.311 31.0755 174.101 30.8711C173.889 30.6641 173.783 30.3512 173.783 29.93ZM175.818 45.623H173.941V33.2755H175.818V45.623Z" fill="#5CBB59"/>
<path d="M191.192 39.4394C191.192 41.4522 190.681 43.0239 189.665 44.1547C188.649 45.2855 187.243 45.8496 185.449 45.8496C184.342 45.8496 183.355 45.591 182.499 45.0736C181.638 44.5563 180.977 43.8123 180.508 42.8441C180.039 41.8759 179.807 40.7402 179.807 39.4419C179.807 37.4291 180.311 35.8598 181.322 34.7389C182.331 33.6155 183.735 33.0538 185.526 33.0538C187.26 33.0538 188.639 33.6278 189.66 34.7783C190.681 35.9239 191.192 37.4784 191.192 39.4394ZM181.751 39.4394C181.751 41.0161 182.067 42.2183 182.701 43.0436C183.335 43.8689 184.265 44.2828 185.494 44.2828C186.722 44.2828 187.655 43.8714 188.293 43.0486C188.93 42.2282 189.248 41.0235 189.248 39.4394C189.248 37.8701 188.93 36.6778 188.293 35.8623C187.655 35.0469 186.715 34.6404 185.471 34.6404C184.243 34.6404 183.315 35.0419 182.689 35.8451C182.065 36.6482 181.751 37.8455 181.751 39.4394Z" fill="#5CBB59"/>
<path d="M203.655 45.6229V37.636C203.655 36.6309 203.423 35.8795 202.964 35.3818C202.505 34.8867 201.785 34.6378 200.806 34.6378C199.51 34.6378 198.561 34.9877 197.956 35.6849C197.352 36.387 197.051 37.5375 197.051 39.1462V45.6229H195.174V33.2755H196.701L197.004 34.9655H197.095C197.478 34.357 198.018 33.8864 198.711 33.5514C199.404 33.2164 200.177 33.0488 201.028 33.0488C202.518 33.0488 203.645 33.4085 204.395 34.1254C205.15 34.8423 205.527 35.9903 205.527 37.567V45.6229H203.655Z" fill="#5CBB59"/>
<path d="M222.026 45.8471C220.195 45.8471 218.75 45.2903 217.689 44.1792C216.628 43.0682 216.1 41.5235 216.1 39.5502C216.1 37.5596 216.591 35.9805 217.576 34.8078C218.56 33.6351 219.882 33.0513 221.537 33.0513C223.092 33.0513 224.32 33.5612 225.223 34.5787C226.126 35.5961 226.58 36.9388 226.58 38.6066V39.7891H218.044C218.084 41.2377 218.449 42.3389 219.144 43.0903C219.843 43.8417 220.824 44.2162 222.09 44.2162C223.425 44.2162 224.742 43.9378 226.047 43.3835V45.0514C225.381 45.3371 224.757 45.5416 224.162 45.6672C223.568 45.7929 222.862 45.8471 222.026 45.8471ZM221.518 34.6181C220.523 34.6181 219.727 34.9408 219.137 35.5863C218.545 36.2317 218.195 37.126 218.091 38.2667H224.569C224.569 37.0866 224.305 36.1849 223.777 35.5567C223.249 34.931 222.495 34.6181 221.518 34.6181Z" fill="#5CBB59"/>
<path d="M237.834 30.6297C236.018 30.6297 234.585 31.2332 233.531 32.4379C232.481 33.6451 231.955 35.2932 231.955 37.3897C231.955 39.5453 232.461 41.2107 233.475 42.3859C234.489 43.561 235.934 44.1473 237.812 44.1473C238.964 44.1473 240.278 43.9428 241.759 43.529V45.2091C240.611 45.6353 239.198 45.8496 237.518 45.8496C235.083 45.8496 233.203 45.1155 231.881 43.6423C230.559 42.1691 229.898 40.0775 229.898 37.3675C229.898 35.6701 230.216 34.1846 230.852 32.906C231.491 31.6299 232.409 30.6469 233.61 29.9546C234.812 29.2624 236.23 28.9175 237.856 28.9175C239.59 28.9175 241.105 29.2328 242.402 29.8635L241.588 31.5067C240.338 30.9228 239.084 30.6297 237.834 30.6297Z" fill="#5CBB59"/>
<path d="M256.474 39.4394C256.474 41.4522 255.963 43.0239 254.947 44.1547C253.93 45.2855 252.524 45.8496 250.731 45.8496C249.623 45.8496 248.636 45.591 247.78 45.0736C246.919 44.5563 246.258 43.8123 245.789 42.8441C245.321 41.8759 245.089 40.7402 245.089 39.4419C245.089 37.4291 245.592 35.8598 246.604 34.7389C247.613 33.6155 249.016 33.0538 250.807 33.0538C252.541 33.0538 253.92 33.6278 254.942 34.7783C255.963 35.9239 256.474 37.4784 256.474 39.4394ZM247.033 39.4394C247.033 41.0161 247.349 42.2183 247.983 43.0436C248.617 43.8689 249.547 44.2828 250.775 44.2828C252.004 44.2828 252.936 43.8714 253.575 43.0486C254.211 42.2282 254.53 41.0235 254.53 39.4394C254.53 37.8701 254.211 36.6778 253.575 35.8623C252.936 35.0469 251.996 34.6404 250.753 34.6404C249.524 34.6404 248.597 35.0419 247.97 35.8451C247.346 36.6482 247.033 37.8455 247.033 39.4394Z" fill="#5CBB59"/>
<path d="M276.248 45.6229V37.5917C276.248 36.6087 276.036 35.8696 275.614 35.3794C275.192 34.8891 274.536 34.6403 273.648 34.6403C272.479 34.6403 271.615 34.9753 271.058 35.643C270.498 36.3106 270.222 37.3404 270.222 38.7298V45.6229H268.344V37.5917C268.344 36.6087 268.132 35.8696 267.71 35.3794C267.289 34.8891 266.63 34.6403 265.732 34.6403C264.555 34.6403 263.694 34.9926 263.147 35.6947C262.599 36.3968 262.328 37.5473 262.328 39.1462V45.6229H260.45V33.2755H261.977L262.281 34.9655H262.372C262.727 34.3644 263.226 33.8938 263.869 33.5563C264.513 33.2188 265.236 33.0488 266.033 33.0488C267.969 33.0488 269.237 33.746 269.832 35.1453H269.923C270.291 34.4999 270.826 33.9875 271.527 33.613C272.227 33.2385 273.027 33.0488 273.924 33.0488C275.326 33.0488 276.377 33.4085 277.072 34.1254C277.768 34.8423 278.118 35.9903 278.118 37.567V45.6229H276.248Z" fill="#5CBB59"/>
<path d="M298.482 45.6229V37.5917C298.482 36.6087 298.27 35.8696 297.848 35.3794C297.427 34.8891 296.77 34.6403 295.882 34.6403C294.713 34.6403 293.85 34.9753 293.292 35.643C292.732 36.3106 292.456 37.3404 292.456 38.7298V45.6229H290.578V37.5917C290.578 36.6087 290.366 35.8696 289.944 35.3794C289.523 34.8891 288.864 34.6403 287.966 34.6403C286.789 34.6403 285.928 34.9926 285.381 35.6947C284.833 36.3968 284.562 37.5473 284.562 39.1462V45.6229H282.684V33.2755H284.211L284.515 34.9655H284.606C284.961 34.3644 285.46 33.8938 286.104 33.5563C286.747 33.2188 287.47 33.0488 288.267 33.0488C290.204 33.0488 291.472 33.746 292.066 35.1453H292.157C292.525 34.4999 293.06 33.9875 293.761 33.613C294.461 33.2385 295.261 33.0488 296.159 33.0488C297.56 33.0488 298.611 33.4085 299.306 34.1254C300.002 34.8423 300.352 35.9903 300.352 37.567V45.6229H298.482Z" fill="#5CBB59"/>
<path d="M310.156 45.8471C308.325 45.8471 306.88 45.2903 305.819 44.1792C304.758 43.0682 304.23 41.5235 304.23 39.5502C304.23 37.5596 304.721 35.9805 305.706 34.8078C306.69 33.6351 308.012 33.0513 309.667 33.0513C311.222 33.0513 312.45 33.5612 313.353 34.5787C314.256 35.5961 314.71 36.9388 314.71 38.6066V39.7891H306.174C306.214 41.2377 306.579 42.3389 307.274 43.0903C307.973 43.8417 308.954 44.2162 310.22 44.2162C311.555 44.2162 312.872 43.9378 314.177 43.3835V45.0514C313.511 45.3371 312.887 45.5416 312.292 45.6672C311.698 45.7929 310.99 45.8471 310.156 45.8471ZM309.648 34.6181C308.653 34.6181 307.857 34.9408 307.267 35.5863C306.675 36.2317 306.325 37.126 306.221 38.2667H312.699C312.699 37.0866 312.435 36.1849 311.907 35.5567C311.379 34.931 310.625 34.6181 309.648 34.6181Z" fill="#5CBB59"/>
<path d="M324.257 33.0513C324.809 33.0513 325.303 33.0956 325.739 33.1868L325.48 34.9211C324.97 34.8103 324.516 34.7536 324.123 34.7536C323.122 34.7536 322.263 35.1601 321.55 35.9706C320.84 36.7836 320.482 37.7912 320.482 39.0008V45.6254H318.605V33.2779H320.154L320.369 35.5641H320.46C320.919 34.761 321.471 34.1402 322.12 33.7066C322.772 33.2681 323.482 33.0513 324.257 33.0513Z" fill="#5CBB59"/>
<path d="M333.705 45.8471C331.909 45.8471 330.52 45.2977 329.538 44.1965C328.556 43.0977 328.063 41.5408 328.063 39.528C328.063 37.4635 328.561 35.8671 329.56 34.7413C330.557 33.613 331.98 33.0513 333.826 33.0513C334.42 33.0513 335.015 33.1153 335.614 33.2434C336.209 33.3715 336.677 33.5218 337.015 33.6943L336.438 35.2833C336.024 35.1182 335.57 34.9802 335.081 34.8719C334.593 34.7635 334.159 34.7093 333.781 34.7093C331.263 34.7093 330.007 36.3081 330.007 39.5083C330.007 41.0259 330.313 42.1887 330.927 42.9992C331.541 43.8097 332.452 44.2162 333.658 44.2162C334.689 44.2162 335.75 43.9945 336.833 43.551V45.2066C336.006 45.6328 334.963 45.8471 333.705 45.8471Z" fill="#5CBB59"/>
<path d="M345.706 45.8471C343.876 45.8471 342.43 45.2903 341.369 44.1792C340.309 43.0682 339.781 41.5235 339.781 39.5502C339.781 37.5596 340.272 35.9805 341.256 34.8078C342.24 33.6351 343.563 33.0513 345.218 33.0513C346.772 33.0513 348.001 33.5612 348.903 34.5787C349.806 35.5961 350.26 36.9388 350.26 38.6066V39.7891H341.725C341.764 41.2377 342.129 42.3389 342.825 43.0903C343.523 43.8417 344.505 44.2162 345.77 44.2162C347.105 44.2162 348.422 43.9378 349.727 43.3835V45.0514C349.061 45.3371 348.437 45.5416 347.843 45.6672C347.248 45.7929 346.543 45.8471 345.706 45.8471ZM345.198 34.6181C344.204 34.6181 343.407 34.9408 342.818 35.5863C342.225 36.2317 341.875 37.126 341.772 38.2667H348.25C348.25 37.0866 347.986 36.1849 347.458 35.5567C346.93 34.931 346.175 34.6181 345.198 34.6181Z" fill="#5CBB59"/>
<path d="M117.728 62.7128H116.541L116.198 56.002C116.161 55.3714 116.144 54.7185 116.144 54.041H116.102C115.986 54.3761 115.846 54.7333 115.675 55.1176C115.508 55.4995 114.336 58.032 112.158 62.7128H110.944L110.512 52.5481H111.699L111.916 58.813L111.928 59.4264C111.928 59.8797 111.906 60.4783 111.859 61.2199H111.901C112.315 60.094 112.678 59.2071 112.989 58.5568L115.816 52.5506H117.059L117.36 58.5297C117.402 59.2392 117.422 59.9437 117.422 60.6434L117.415 61.2199H117.476C117.826 60.1827 118.13 59.3623 118.391 58.7588L121.093 52.5481H122.363L117.728 62.7128Z" fill="#787878"/>
<path d="M125.141 62.8532C124.285 62.8532 123.611 62.5995 123.123 62.0944C122.634 61.5894 122.39 60.8898 122.39 59.993C122.39 59.1209 122.563 58.2858 122.908 57.4851C123.256 56.6844 123.715 56.0636 124.287 55.6177C124.86 55.1718 125.489 54.9501 126.179 54.9501C126.892 54.9501 127.425 55.1053 127.783 55.4132C128.143 55.7212 128.321 56.1523 128.321 56.7017C128.321 57.5368 127.933 58.1897 127.161 58.6651C126.389 59.1406 125.284 59.3796 123.846 59.3796H123.616L123.587 59.9364C123.587 60.5449 123.73 61.0179 124.016 61.3603C124.302 61.7003 124.744 61.8727 125.346 61.8727C125.639 61.8727 125.94 61.8308 126.251 61.7471C126.559 61.6633 126.944 61.5106 127.405 61.2889V62.3039C126.966 62.5083 126.582 62.6512 126.246 62.73C125.915 62.8113 125.545 62.8532 125.141 62.8532ZM126.11 55.9454C125.632 55.9454 125.18 56.1646 124.761 56.6007C124.339 57.0367 124.018 57.6403 123.794 58.4139H123.878C124.939 58.4139 125.753 58.2759 126.318 58.0024C126.882 57.7265 127.166 57.3274 127.166 56.8027C127.166 56.5563 127.08 56.3543 126.91 56.1917C126.739 56.0291 126.473 55.9454 126.11 55.9454Z" fill="#787878"/>
<path d="M133.129 62.8532C132.677 62.8532 132.28 62.7349 131.94 62.4984C131.597 62.2619 131.34 61.9392 131.167 61.5302H131.098L130.61 62.7127H129.737L132.041 51.8927H133.213C132.976 53.0161 132.793 53.8734 132.665 54.4696C132.537 55.0658 132.361 55.7605 132.139 56.5587H132.201C132.633 56.0118 133.062 55.6102 133.481 55.3516C133.903 55.0954 134.337 54.9648 134.784 54.9648C135.44 54.9648 135.951 55.1939 136.318 55.6546C136.686 56.1128 136.871 56.7435 136.871 57.5466C136.871 58.5148 136.713 59.4115 136.392 60.2344C136.074 61.0572 135.63 61.7002 135.06 62.1609C134.488 62.6216 133.844 62.8532 133.129 62.8532ZM134.426 55.933C133.98 55.933 133.526 56.1522 133.062 56.5932C132.598 57.0342 132.231 57.5885 131.959 58.2561C131.688 58.9237 131.55 59.6062 131.55 60.3083C131.55 60.8182 131.678 61.2075 131.937 61.4809C132.194 61.7519 132.569 61.8874 133.057 61.8874C133.518 61.8874 133.945 61.7002 134.345 61.3233C134.742 60.9488 135.063 60.4142 135.304 59.7195C135.546 59.0272 135.667 58.2906 135.667 57.5121C135.67 56.4577 135.255 55.933 134.426 55.933Z" fill="#787878"/>
<path d="M148.803 59.7639C148.803 60.7419 148.475 61.5007 147.824 62.0402C147.17 62.5797 146.25 62.8507 145.064 62.8507C144.57 62.8507 144.138 62.8162 143.763 62.7497C143.389 62.6832 143.036 62.5699 142.705 62.4122V61.2322C143.46 61.6214 144.249 61.816 145.078 61.816C145.833 61.816 146.43 61.6411 146.872 61.2913C147.313 60.9415 147.535 60.4611 147.535 59.8476C147.535 59.488 147.414 59.1677 147.17 58.8918C146.926 58.6159 146.472 58.2907 145.806 57.9162C145.103 57.522 144.617 57.1279 144.346 56.7361C144.074 56.342 143.936 55.8764 143.936 55.3393C143.936 54.4721 144.245 53.7651 144.856 53.2206C145.471 52.6762 146.277 52.4027 147.279 52.4027C147.74 52.4027 148.169 52.4471 148.567 52.5357C148.964 52.6244 149.386 52.7747 149.827 52.989L149.366 54.0311C149.057 53.8538 148.715 53.7158 148.335 53.6148C147.952 53.5113 147.602 53.462 147.281 53.462C146.657 53.462 146.156 53.6222 145.776 53.9449C145.397 54.2652 145.209 54.7037 145.209 55.2555C145.209 55.5068 145.249 55.7211 145.327 55.8985C145.406 56.0759 145.532 56.2459 145.705 56.4036C145.875 56.5612 146.208 56.7805 146.694 57.0638C147.377 57.4728 147.839 57.7906 148.081 58.0246C148.322 58.2586 148.502 58.5124 148.626 58.7932C148.742 59.0691 148.803 59.3943 148.803 59.7639Z" fill="#787878"/>
<path d="M152.935 61.8998C153.192 61.8998 153.525 61.8407 153.939 61.7175V62.6143C153.782 62.6783 153.584 62.735 153.352 62.7818C153.12 62.8286 152.935 62.8508 152.795 62.8508C152.213 62.8508 151.766 62.7128 151.458 62.4369C151.149 62.161 150.994 61.7495 150.994 61.2026C150.994 60.8947 151.036 60.5473 151.12 60.1581L152.005 55.9725H150.804L150.903 55.465L152.193 54.923L153.066 53.3364H153.749L153.367 55.088H155.279L155.096 55.97H153.192L152.292 60.1704C152.208 60.5744 152.166 60.8799 152.166 61.0893C152.166 61.348 152.232 61.55 152.368 61.688C152.504 61.8308 152.691 61.8998 152.935 61.8998Z" fill="#787878"/>
<path d="M159.872 54.9944C160.755 54.9944 161.454 55.2555 161.967 55.7778C162.477 56.2976 162.734 57.017 162.734 57.931C162.734 58.8031 162.569 59.6259 162.233 60.3995C161.898 61.173 161.446 61.7717 160.871 62.193C160.299 62.6142 159.653 62.8261 158.932 62.8261C158.039 62.8261 157.339 62.565 156.831 62.0402C156.322 61.5179 156.068 60.801 156.068 59.892C156.068 59.0125 156.236 58.1823 156.577 57.4062C156.917 56.6302 157.376 56.034 157.953 55.6201C158.53 55.2013 159.167 54.9944 159.872 54.9944ZM161.518 57.7684C161.518 57.2362 161.372 56.8027 161.081 56.4725C160.792 56.1399 160.398 55.9749 159.899 55.9749C159.394 55.9749 158.937 56.1473 158.535 56.4898C158.133 56.8322 157.82 57.3101 157.6 57.9187C157.378 58.5296 157.267 59.2071 157.267 59.9536C157.267 60.5621 157.415 61.0301 157.711 61.3627C158.007 61.6929 158.432 61.8604 158.987 61.8604C159.47 61.8604 159.904 61.6904 160.292 61.3529C160.677 61.0154 160.977 60.5325 161.195 59.9092C161.409 59.2835 161.518 58.5715 161.518 57.7684Z" fill="#787878"/>
<path d="M169.222 54.9525C169.545 54.9525 169.824 54.9845 170.061 55.0511L169.809 56.0931C169.56 56.034 169.318 56.002 169.076 56.002C168.652 56.002 168.255 56.14 167.887 56.4183C167.517 56.6967 167.194 57.0835 166.915 57.5762C166.639 58.0689 166.437 58.6183 166.306 59.2194L165.559 62.7103H164.384L166.017 55.088H166.987L166.834 56.4996H166.903C167.238 56.0587 167.515 55.7433 167.732 55.5512C167.951 55.359 168.181 55.2087 168.42 55.1053C168.662 55.0043 168.931 54.9525 169.222 54.9525Z" fill="#787878"/>
<path d="M173.638 62.8532C172.782 62.8532 172.111 62.5995 171.622 62.0944C171.134 61.5894 170.889 60.8898 170.889 59.993C170.889 59.1209 171.062 58.2858 171.41 57.4851C171.758 56.6844 172.214 56.0636 172.789 55.6177C173.359 55.1718 173.99 54.9501 174.681 54.9501C175.392 54.9501 175.927 55.1053 176.285 55.4132C176.642 55.7212 176.822 56.1523 176.822 56.7017C176.822 57.5368 176.438 58.1897 175.663 58.6651C174.891 59.1406 173.786 59.3796 172.347 59.3796H172.118L172.088 59.9364C172.088 60.5449 172.234 61.0179 172.518 61.3603C172.804 61.7003 173.248 61.8727 173.847 61.8727C174.141 61.8727 174.442 61.8308 174.75 61.7471C175.061 61.6633 175.446 61.5106 175.907 61.2889V62.3039C175.468 62.5083 175.083 62.6512 174.748 62.73C174.412 62.8113 174.042 62.8532 173.638 62.8532ZM174.607 55.9454C174.129 55.9454 173.677 56.1646 173.255 56.6007C172.836 57.0367 172.513 57.6403 172.288 58.4139H172.372C173.433 58.4139 174.247 58.2759 174.809 58.0024C175.374 57.7265 175.658 57.3274 175.658 56.8027C175.658 56.5563 175.574 56.3543 175.404 56.1917C175.236 56.0291 174.972 55.9454 174.607 55.9454Z" fill="#787878"/>
<path d="M191.182 56.613C191.182 57.8226 190.938 58.8918 190.45 59.8181C189.961 60.7444 189.263 61.4588 188.355 61.9614C187.447 62.4615 186.384 62.7128 185.165 62.7128H182.708L184.864 52.5481H187.252C188.538 52.5481 189.512 52.8955 190.181 53.5877C190.849 54.28 191.182 55.2876 191.182 56.613ZM185.244 61.6904C186.184 61.6904 187.011 61.4786 187.721 61.0548C188.434 60.6311 188.979 60.0324 189.357 59.2589C189.737 58.4853 189.927 57.5984 189.927 56.6031C189.927 55.6054 189.685 54.8515 189.206 54.3391C188.728 53.8267 188.025 53.5705 187.099 53.5705H185.859L184.112 61.6929L185.244 61.6904Z" fill="#787878"/>
<path d="M195.635 62.8532C194.779 62.8532 194.108 62.5995 193.619 62.0944C193.131 61.5894 192.887 60.8898 192.887 59.993C192.887 59.1209 193.06 58.2858 193.407 57.4851C193.755 56.6844 194.212 56.0636 194.786 55.6177C195.356 55.1718 195.988 54.9501 196.678 54.9501C197.389 54.9501 197.924 55.1053 198.282 55.4132C198.64 55.7212 198.82 56.1523 198.82 56.7017C198.82 57.5368 198.435 58.1897 197.66 58.6651C196.888 59.1406 195.783 59.3796 194.345 59.3796H194.115L194.086 59.9364C194.086 60.5449 194.231 61.0179 194.515 61.3603C194.801 61.7003 195.245 61.8727 195.845 61.8727C196.138 61.8727 196.439 61.8308 196.748 61.7471C197.058 61.6633 197.443 61.5106 197.904 61.2889V62.3039C197.465 62.5083 197.081 62.6512 196.745 62.73C196.41 62.8113 196.04 62.8532 195.635 62.8532ZM196.604 55.9454C196.126 55.9454 195.674 56.1646 195.253 56.6007C194.833 57.0367 194.51 57.6403 194.286 58.4139H194.369C195.43 58.4139 196.244 58.2759 196.807 58.0024C197.372 57.7265 197.655 57.3274 197.655 56.8027C197.655 56.5563 197.571 56.3543 197.401 56.1917C197.233 56.0291 196.97 55.9454 196.604 55.9454Z" fill="#787878"/>
<path d="M201.378 62.7128L200.505 55.0905H201.679L202.125 59.3524C202.236 60.5473 202.293 61.3874 202.293 61.8702H202.335C202.925 60.5941 203.342 59.7343 203.583 59.2909L205.853 55.0905H207.096L202.972 62.7128H201.378Z" fill="#787878"/>
<path d="M210.429 62.8532C209.573 62.8532 208.902 62.5995 208.413 62.0944C207.925 61.5894 207.681 60.8898 207.681 59.993C207.681 59.1209 207.854 58.2858 208.201 57.4851C208.549 56.6844 209.006 56.0636 209.58 55.6177C210.15 55.1718 210.782 54.9501 211.472 54.9501C212.183 54.9501 212.718 55.1053 213.076 55.4132C213.434 55.7212 213.614 56.1523 213.614 56.7017C213.614 57.5368 213.229 58.1897 212.454 58.6651C211.682 59.1406 210.577 59.3796 209.139 59.3796H208.909L208.88 59.9364C208.88 60.5449 209.025 61.0179 209.309 61.3603C209.595 61.7003 210.039 61.8727 210.639 61.8727C210.932 61.8727 211.233 61.8308 211.542 61.7471C211.852 61.6633 212.237 61.5106 212.698 61.2889V62.3039C212.259 62.5083 211.875 62.6512 211.539 62.73C211.204 62.8113 210.834 62.8532 210.429 62.8532ZM211.398 55.9454C210.92 55.9454 210.468 56.1646 210.047 56.6007C209.627 57.0367 209.304 57.6403 209.08 58.4139H209.163C210.224 58.4139 211.038 58.2759 211.601 58.0024C212.166 57.7265 212.449 57.3274 212.449 56.8027C212.449 56.5563 212.365 56.3543 212.195 56.1917C212.027 56.0291 211.764 55.9454 211.398 55.9454Z" fill="#787878"/>
<path d="M216.187 62.7127H215.012L217.329 51.8927H218.503L216.187 62.7127Z" fill="#787878"/>
<path d="M223.306 54.9944C224.189 54.9944 224.887 55.2555 225.401 55.7778C225.911 56.2976 226.168 57.017 226.168 57.931C226.168 58.8031 226.002 59.6259 225.667 60.3995C225.331 61.173 224.88 61.7717 224.305 62.193C223.733 62.6142 223.087 62.8261 222.366 62.8261C221.473 62.8261 220.773 62.565 220.264 62.0402C219.756 61.5179 219.502 60.801 219.502 59.892C219.502 59.0125 219.67 58.1823 220.01 57.4062C220.351 56.6302 220.81 56.034 221.387 55.6201C221.964 55.2013 222.601 54.9944 223.306 54.9944ZM224.952 57.7684C224.952 57.2362 224.806 56.8027 224.515 56.4725C224.226 56.1399 223.832 55.9749 223.333 55.9749C222.828 55.9749 222.371 56.1473 221.969 56.4898C221.567 56.8322 221.254 57.3101 221.034 57.9187C220.812 58.5296 220.701 59.2071 220.701 59.9536C220.701 60.5621 220.849 61.0301 221.145 61.3627C221.441 61.6929 221.865 61.8604 222.421 61.8604C222.904 61.8604 223.338 61.6904 223.726 61.3529C224.11 61.0154 224.411 60.5325 224.628 59.9092C224.843 59.2835 224.952 58.5715 224.952 57.7684Z" fill="#787878"/>
<path d="M231.21 62.8532C230.756 62.8532 230.361 62.7374 230.024 62.5058C229.683 62.2743 229.422 61.9491 229.237 61.5303H229.168L229.138 61.7939C229.126 61.9097 229.101 62.0723 229.066 62.2817C229.032 62.4886 228.765 63.7721 228.267 66.1322H227.108L229.454 55.0905H230.423L230.243 56.544H230.297C231.131 55.492 231.995 54.9648 232.895 54.9648C233.534 54.9648 234.035 55.1915 234.402 55.6423C234.767 56.0956 234.955 56.7288 234.955 57.5442C234.955 58.5272 234.795 59.4288 234.474 60.2492C234.151 61.0696 233.707 61.7076 233.139 62.1634C232.567 62.6241 231.926 62.8532 231.21 62.8532ZM232.508 55.933C232.059 55.933 231.605 56.1523 231.141 56.5933C230.677 57.0342 230.312 57.5885 230.041 58.2562C229.769 58.9238 229.631 59.6062 229.631 60.3083C229.631 60.8183 229.762 61.2075 230.019 61.481C230.275 61.752 230.65 61.8875 231.139 61.8875C231.6 61.8875 232.027 61.7003 232.424 61.3233C232.821 60.9464 233.142 60.4143 233.386 59.7195C233.628 59.0273 233.746 58.2907 233.746 57.5122C233.749 56.4578 233.334 55.933 232.508 55.933Z" fill="#787878"/>
<path d="M241.085 62.7128L242.119 57.9014C242.203 57.4654 242.245 57.1525 242.245 56.9628C242.245 56.6401 242.173 56.3863 242.027 56.204C241.882 56.0242 241.638 55.933 241.287 55.933C240.898 55.933 240.515 56.071 240.148 56.3494C239.778 56.6277 239.452 57.0244 239.171 57.5417C238.89 58.0591 238.672 58.6799 238.517 59.4091L237.814 62.7128H236.64L238.273 55.0905H239.242L239.089 56.5021H239.158C239.563 55.9503 239.965 55.5536 240.367 55.3122C240.769 55.0708 241.186 54.9525 241.613 54.9525C242.141 54.9525 242.546 55.1028 242.827 55.4034C243.11 55.7064 243.281 56.1252 243.33 56.6622H243.384C243.784 56.0833 244.211 55.6522 244.662 55.3713C245.116 55.0905 245.57 54.9525 246.031 54.9525C246.621 54.9525 247.08 55.1102 247.403 55.4255C247.728 55.7409 247.889 56.1991 247.889 56.8027C247.889 57.118 247.837 57.5294 247.733 58.0394L246.729 62.7128H245.543L246.576 57.9014C246.67 57.4186 246.717 57.081 246.717 56.8864C246.717 56.5982 246.638 56.3691 246.475 56.1942C246.315 56.0192 246.063 55.933 245.718 55.933C245.341 55.933 244.968 56.0685 244.6 56.337C244.235 56.6056 243.912 56.9874 243.633 57.4801C243.355 57.9729 243.147 58.5592 243.002 59.2367L242.254 62.7128H241.085Z" fill="#787878"/>
<path d="M252.697 62.8532C251.841 62.8532 251.17 62.5995 250.681 62.0944C250.193 61.5894 249.949 60.8898 249.949 59.993C249.949 59.1209 250.121 58.2858 250.469 57.4851C250.817 56.6844 251.273 56.0636 251.848 55.6177C252.418 55.1718 253.05 54.9501 253.74 54.9501C254.451 54.9501 254.986 55.1053 255.344 55.4132C255.701 55.7212 255.882 56.1523 255.882 56.7017C255.882 57.5368 255.497 58.1897 254.722 58.6651C253.95 59.1406 252.845 59.3796 251.407 59.3796H251.177L251.148 59.9364C251.148 60.5449 251.293 61.0179 251.577 61.3603C251.863 61.7003 252.307 61.8727 252.906 61.8727C253.2 61.8727 253.501 61.8308 253.809 61.7471C254.12 61.6633 254.505 61.5106 254.966 61.2889V62.3039C254.527 62.5083 254.142 62.6512 253.807 62.73C253.471 62.8113 253.101 62.8532 252.697 62.8532ZM253.666 55.9454C253.188 55.9454 252.736 56.1646 252.314 56.6007C251.895 57.0367 251.572 57.6403 251.347 58.4139H251.431C252.492 58.4139 253.306 58.2759 253.869 58.0024C254.433 57.7265 254.717 57.3274 254.717 56.8027C254.717 56.5563 254.633 56.3543 254.463 56.1917C254.295 56.0291 254.031 55.9454 253.666 55.9454Z" fill="#787878"/>
<path d="M261.97 62.7128L263.003 57.9015C263.095 57.4186 263.144 57.0836 263.144 56.8988C263.144 56.6056 263.06 56.374 262.895 56.1967C262.73 56.0218 262.466 55.9331 262.103 55.9331C261.689 55.9331 261.284 56.071 260.892 56.3494C260.5 56.6278 260.152 57.022 259.853 57.5368C259.552 58.0517 259.325 58.675 259.172 59.4067L258.469 62.7104H257.295L258.928 55.0881H259.898L259.745 56.4997H259.814C260.26 55.9355 260.69 55.534 261.106 55.2999C261.523 55.0659 261.955 54.9476 262.399 54.9476C262.991 54.9476 263.457 55.1078 263.798 55.4305C264.141 55.7532 264.311 56.2041 264.311 56.783C264.311 57.1476 264.259 57.5664 264.153 58.0345L263.154 62.7079H261.97V62.7128Z" fill="#787878"/>
<path d="M268.46 61.8998C268.717 61.8998 269.052 61.8407 269.464 61.7175V62.6143C269.309 62.6783 269.112 62.735 268.88 62.7818C268.648 62.8286 268.46 62.8508 268.32 62.8508C267.74 62.8508 267.293 62.7128 266.985 62.4369C266.674 62.161 266.521 61.7495 266.521 61.2026C266.521 60.8947 266.563 60.5473 266.647 60.1581L267.533 55.9725H266.334L266.43 55.465L267.72 54.923L268.593 53.3364H269.277L268.894 55.088H270.806L270.624 55.97H268.719L267.821 60.1704C267.737 60.5744 267.696 60.8799 267.696 61.0893C267.696 61.348 267.762 61.55 267.898 61.688C268.031 61.8308 268.221 61.8998 268.46 61.8998Z" fill="#787878"/>
<path d="M278.594 62.7128H277.395L279.327 53.5951H276.495L276.724 52.5457H283.6L283.39 53.5951H280.543L278.594 62.7128Z" fill="#787878"/>
<path d="M286.316 62.8532C285.46 62.8532 284.789 62.5995 284.3 62.0944C283.812 61.5894 283.568 60.8898 283.568 59.993C283.568 59.1209 283.74 58.2858 284.088 57.4851C284.436 56.6844 284.892 56.0636 285.467 55.6177C286.037 55.1718 286.668 54.9501 287.359 54.9501C288.07 54.9501 288.605 55.1053 288.963 55.4132C289.32 55.7212 289.5 56.1523 289.5 56.7017C289.5 57.5368 289.116 58.1897 288.341 58.6651C287.569 59.1406 286.464 59.3796 285.026 59.3796H284.796L284.766 59.9364C284.766 60.5449 284.912 61.0179 285.196 61.3603C285.482 61.7003 285.926 61.8727 286.525 61.8727C286.819 61.8727 287.12 61.8308 287.428 61.7471C287.739 61.6633 288.124 61.5106 288.585 61.2889V62.3039C288.146 62.5083 287.761 62.6512 287.426 62.73C287.093 62.8113 286.723 62.8532 286.316 62.8532ZM287.288 55.9454C286.809 55.9454 286.358 56.1646 285.936 56.6007C285.516 57.0367 285.193 57.6403 284.969 58.4139H285.053C286.113 58.4139 286.927 58.2759 287.49 58.0024C288.055 57.7265 288.339 57.3274 288.339 56.8027C288.339 56.5563 288.255 56.3543 288.084 56.1917C287.917 56.0291 287.65 55.9454 287.288 55.9454Z" fill="#787878"/>
<path d="M294.962 54.9525C295.391 54.9525 295.771 55.0658 296.107 55.2974C296.442 55.529 296.701 55.8566 296.889 56.2878H296.965L297.432 55.0905H298.317L296.691 62.7128H295.761L295.944 61.2593H295.887C295.056 62.3211 294.18 62.8507 293.258 62.8507C292.611 62.8507 292.103 62.6216 291.738 62.1609C291.37 61.7027 291.185 61.0745 291.185 60.2763C291.185 59.3106 291.348 58.4163 291.681 57.591C292.012 56.7657 292.466 56.1203 293.048 55.6522C293.633 55.1866 294.269 54.9525 294.962 54.9525ZM293.637 61.885C294.089 61.885 294.535 61.6707 294.984 61.242C295.431 60.8134 295.794 60.2566 296.072 59.5668C296.351 58.8795 296.492 58.1897 296.492 57.4974C296.492 57.0219 296.358 56.6401 296.099 56.3568C295.84 56.0734 295.497 55.933 295.073 55.933C294.592 55.933 294.141 56.1326 293.724 56.5317C293.307 56.9308 292.979 57.4703 292.744 58.1527C292.505 58.8326 292.387 59.552 292.387 60.3083C292.387 60.8355 292.498 61.2322 292.715 61.4933C292.934 61.7544 293.243 61.885 293.637 61.885Z" fill="#787878"/>
<path d="M304.006 62.7128L305.039 57.9014C305.123 57.4654 305.165 57.1525 305.165 56.9628C305.165 56.6401 305.094 56.3863 304.948 56.204C304.803 56.0242 304.558 55.933 304.208 55.933C303.818 55.933 303.436 56.071 303.068 56.3494C302.698 56.6277 302.373 57.0244 302.092 57.5417C301.81 58.0591 301.593 58.6799 301.438 59.4091L300.735 62.7128H299.56L301.194 55.0905H302.163L302.01 56.5021H302.079C302.484 55.9503 302.886 55.5536 303.288 55.3122C303.69 55.0708 304.107 54.9525 304.534 54.9525C305.062 54.9525 305.466 55.1028 305.747 55.4034C306.031 55.7064 306.201 56.1252 306.251 56.6622H306.305C306.705 56.0833 307.131 55.6522 307.583 55.3713C308.037 55.0905 308.491 54.9525 308.952 54.9525C309.542 54.9525 310 55.1102 310.324 55.4255C310.649 55.7409 310.81 56.1991 310.81 56.8027C310.81 57.118 310.758 57.5294 310.654 58.0394L309.65 62.7128H308.464L309.497 57.9014C309.591 57.4186 309.638 57.081 309.638 56.8864C309.638 56.5982 309.559 56.3691 309.396 56.1942C309.236 56.0192 308.984 55.933 308.639 55.933C308.261 55.933 307.889 56.0685 307.521 56.337C307.156 56.6056 306.833 56.9874 306.554 57.4801C306.275 57.9729 306.068 58.5592 305.923 59.2367L305.175 62.7128H304.006Z" fill="#787878"/>
<defs>
<linearGradient id="paint0_linear_0_4" x1="27.7321" y1="68.2415" x2="66.0647" y2="31.0419" gradientUnits="userSpaceOnUse">
<stop stop-color="#93CD91"/>
<stop offset="0.8226" stop-color="#5DBB59"/>
</linearGradient>
<radialGradient id="paint1_radial_0_4" cx="0" cy="0" r="1" gradientUnits="userSpaceOnUse" gradientTransform="translate(51.3665 41.4923) scale(28.2576 28.2195)">
<stop offset="0.2043" stop-color="#9A9B9E"/>
<stop offset="0.5538" stop-color="#9A8F83"/>
<stop offset="0.9032" stop-color="#464A3D"/>
</radialGradient>
<radialGradient id="paint2_radial_0_4" cx="0" cy="0" r="1" gradientUnits="userSpaceOnUse" gradientTransform="translate(50.1377 46.8969) scale(13.7305 13.712)">
<stop offset="0.3065" stop-color="#484039"/>
<stop offset="1" stop-color="#9A8F83"/>
</radialGradient>
</defs>
</svg>
